<svg width="512" height="512" viewBox="0 0 512 512" xmlns="http://www.w3.org/2000/svg">
  <g fill="#F9F9F9" fill-rule="evenodd" stroke-linecap="square" stroke="red">
    <path d="M-32 0h64v512h-64zM32 0h64v512H32zM96 0h64v512H96zM160 0h64v512h-64zM224 0h64v512h-64z"/>
    <path d="M96 0h64v512H96zM160 0h64v512h-64zM224 0h64v512h-64zM288 0h64v512h-64zM352 0h64v512h-64zM416 0h64v512h-64zM480 0h64v512h-64z"/>
    <g opacity=".5" fill-opacity=".5">
      <path d="M512-32v64H0v-64zM512 32v64H0V32zM512 96v64H0V96zM512 160v64H0v-64zM512 224v64H0v-64z"/>
      <path d="M512 96v64H0V96zM512 160v64H0v-64zM512 224v64H0v-64zM512 288v64H0v-64zM512 352v64H0v-64zM512 416v64H0v-64zM512 480v64H0v-64z"/>
    </g>
  </g>
</svg>
